PathFileType	4	(X/Y/Z)	C:/Users/opensim2020/Desktop/walking_exp_matlab/subject01_walking07_straight_04.trc	
DataRate	CameraRate	NumFrames	NumMarkers	Units	OrigDataRate	OrigDataStartFrame	OrigNumFrames	
100.00	100.00	8	43	mm	100.00	2856	176	
Frame#	Time	LFHD			RFHD			LBHD			RBHD			C7			T10			CLAV			STRN			RBAK			LSHO			LUPA			LELB			LFRM			LWRA			LWRB			LFIN			RSHO			RUPA			RELB			RFRM			RWRA			RWRB			RFIN			LASI			RASI			LPSI			RPSI			LTHI			LKNE			LTIB			LANK			LHEE			LTOE			RTHI			RKNE			RTIB			RANK			RHEE			RTOE			*39			*40			*41			*42			
		X1	Y1	Z1	X2	Y2	Z2	X3	Y3	Z3	X4	Y4	Z4	X5	Y5	Z5	X6	Y6	Z6	X7	Y7	Z7	X8	Y8	Z8	X9	Y9	Z9	X10	Y10	Z10	X11	Y11	Z11	X12	Y12	Z12	X13	Y13	Z13	X14	Y14	Z14	X15	Y15	Z15	X16	Y16	Z16	X17	Y17	Z17	X18	Y18	Z18	X19	Y19	Z19	X20	Y20	Z20	X21	Y21	Z21	X22	Y22	Z22	X23	Y23	Z23	X24	Y24	Z24	X25	Y25	Z25	X26	Y26	Z26	X27	Y27	Z27	X28	Y28	Z28	X29	Y29	Z29	X30	Y30	Z30	X31	Y31	Z31	X32	Y32	Z32	X33	Y33	Z33	X34	Y34	Z34	X35	Y35	Z35	X36	Y36	Z36	X37	Y37	Z37	X38	Y38	Z38	X39	Y39	Z39	X40	Y40	Z40	X41	Y41	Z41	X42	Y42	Z42	X43	Y43	Z43	

89	0.880	-996.93103	0.87537	1650.05286	-1100.71155	-49.90225	1657.53577	-1046.27209	112.28970	1616.89453	-1156.76660	61.64278	1625.52466	-1085.55420	149.52817	1417.71899	-1103.47278	179.80629	1123.55273	-1078.94641	4.36857	1351.95459	-1079.69531	-40.86436	1198.73145	-1173.89075	197.69916	1226.52234	-919.68695	71.71410	1375.14124	-845.58447	125.56710	1189.99744	-858.95990	165.61780	1047.78613	-837.64978	162.34094	934.24536	-861.56549	124.02807	800.39099	-835.25989	176.84145	812.23810	-831.84912	154.00299	730.06482	-1232.91309	58.65312	1386.00659	-1347.49414	87.82796	1189.06152	-1362.16321	64.86451	1064.73572	-1396.27051	-3.39264	964.65411	-1377.64819	-120.57101	886.17328	-1417.99695	-81.15398	872.09271	-1418.99927	-144.92911	816.15515	-999.51172	-0.94314	923.29144	-1217.41638	8.93275	917.31671	-1039.38452	187.82834	930.57416	-1183.22144	192.62843	937.04218	-931.71271	-42.72743	607.31000	-944.54614	-65.44152	477.20392	-932.24030	-55.94370	290.02234	-969.23608	-91.68832	71.01097	-1023.83502	-53.84999	37.77380	-965.26721	-239.10802	48.06744	-1270.37646	127.07437	594.41071	-1250.73303	158.81128	434.80420	-1259.83582	277.76245	302.89041	-1220.40881	388.65472	126.07581	-1172.95837	450.03049	112.01495	-1213.05212	278.05951	36.22504	-1080.52283	-33.17601	1691.11633	-3101.83325	1973.20764	1023.27594	-3140.57520	2012.55212	1021.97131			 
90	0.890	-994.32452	-8.57014	1650.40259	-1098.21558	-59.17059	1657.93628	-1043.49976	102.83125	1617.26770	-1153.86841	52.46478	1625.90747	-1082.71912	139.55896	1418.04773	-1101.46851	169.49152	1123.59827	-1076.56726	-5.32693	1352.37500	-1077.38635	-51.16624	1199.34888	-1170.80920	187.90370	1226.23584	-917.00598	61.91805	1374.79224	-843.01172	113.98775	1188.91772	-856.44635	153.33516	1046.58191	-835.28156	149.23399	932.95068	-859.56299	110.28320	799.44592	-833.28491	163.24127	810.92682	-829.81628	139.61627	728.85461	-1230.38123	49.54451	1386.10657	-1344.65576	80.47701	1188.98340	-1359.53247	57.92525	1064.54333	-1393.81702	-9.98527	964.10620	-1375.59790	-126.81146	885.34833	-1416.01147	-87.33592	871.41797	-1416.93506	-151.10124	815.48090	-997.54999	-11.72068	923.34479	-1215.25171	-2.01798	917.17603	-1037.42676	177.02512	931.28461	-1181.42725	181.72902	936.54547	-928.24261	-50.65996	607.80493	-943.34003	-74.78104	478.90076	-929.08142	-66.04102	291.08432	-968.60211	-94.01086	70.61176	-1022.86456	-54.93358	38.63761	-965.07520	-240.95905	43.04418	-1269.14929	113.99205	593.86218	-1249.81250	145.14215	433.71402	-1258.95850	268.50613	305.70401	-1219.94507	383.73401	131.31482	-1171.90833	444.77576	119.45576	-1213.13965	277.23062	36.09369	-1077.93469	-42.62039	1691.65222	-3101.87549	1973.18152	1023.37769	-3140.57153	2012.57153	1021.98468			 
91	0.900	-991.87469	-18.04975	1650.46191	-1095.72205	-68.42353	1658.40100	-1040.37585	93.46290	1617.50525	-1151.10046	43.35657	1626.30432	-1080.02258	129.65730	1418.39575	-1099.44373	159.22356	1123.73108	-1074.14844	-15.09601	1352.91724	-1075.09521	-61.42476	1199.92480	-1167.93457	178.03195	1226.12866	-914.50879	52.05199	1374.64185	-840.51099	102.25548	1188.10974	-853.86725	140.77640	1045.54529	-832.81354	135.69339	932.00610	-857.44312	95.97671	798.83002	-830.19336	148.47681	809.84790	-827.67175	124.69831	727.98737	-1228.00269	40.25416	1386.43604	-1341.61340	73.20894	1189.04956	-1356.83777	51.07261	1064.61951	-1391.35229	-16.28166	963.85803	-1373.45398	-132.74695	884.52582	-1413.63867	-93.18002	870.84497	-1414.95679	-156.70016	814.71143	-995.57800	-22.20136	923.75336	-1212.90857	-12.87970	917.30438	-1035.80029	166.58992	932.26929	-1179.95532	171.03487	936.32391	-925.35925	-58.82845	608.28497	-942.38910	-84.57453	479.98572	-925.93005	-75.31631	291.51529	-968.62878	-95.55260	70.78480	-1022.71832	-55.55678	38.96535	-963.39606	-242.56168	41.20211	-1267.77356	100.24001	593.22345	-1249.57507	130.75536	433.08215	-1257.84875	258.30850	308.77521	-1219.38098	378.02319	137.26448	-1170.23340	438.07162	127.92757	-1213.16223	276.61960	36.17382	-1075.35522	-52.20035	1692.15991	-3101.91211	1973.00525	1023.41986	-3140.65283	2012.48340	1022.00085			 
92	0.910	-989.23297	-27.45717	1650.91284	-1093.10864	-77.55452	1659.08215	-1037.45239	84.04983	1617.69250	-1148.30859	34.28700	1626.78479	-1077.46301	120.03864	1418.58008	-1097.45349	149.67429	1124.13831	-1071.96912	-24.96401	1353.39941	-1072.86218	-71.70075	1200.75549	-1165.14966	167.99129	1226.22217	-912.14496	42.35273	1374.74243	-838.04279	90.40295	1187.52747	-851.33240	127.86462	1044.79639	-830.29712	121.81633	931.38611	-855.14679	81.19887	798.38446	-827.71832	133.71738	809.03406	-825.29590	109.17558	727.22400	-1225.80127	30.86310	1387.03625	-1338.72705	66.06694	1189.34753	-1354.11194	44.27873	1064.91809	-1388.81848	-22.37809	963.76447	-1371.25916	-138.19485	883.66785	-1410.92871	-98.27023	869.88348	-1412.93335	-161.75414	813.81500	-993.34552	-32.49191	924.71375	-1210.26440	-23.75316	917.61072	-1034.28430	156.48882	933.15088	-1178.50098	160.10309	936.30566	-924.07764	-67.23407	608.92548	-941.51385	-94.19926	480.01953	-923.30231	-83.18092	291.15445	-968.88202	-96.81701	70.77652	-1022.84283	-56.65327	39.47977	-962.00153	-243.76381	39.66614	-1266.42065	85.82553	592.44025	-1249.94897	115.30225	432.37152	-1256.57361	246.88525	311.73337	-1218.59106	371.27438	143.97681	-1168.37244	430.52811	136.96465	-1213.01941	276.16736	36.20264	-1072.61023	-61.46023	1692.73462	-3101.99219	1973.14148	1023.28400	-3140.55518	2012.54248	1022.07745			 
93	0.920	-986.58295	-36.91338	1651.48279	-1090.46851	-86.57944	1659.85657	-1034.79980	74.70853	1618.14441	-1145.48535	25.15018	1627.37390	-1075.05005	110.62277	1418.77490	-1095.42285	139.67590	1124.59595	-1069.66980	-34.81788	1354.02271	-1070.74878	-81.76180	1201.52441	-1162.51917	158.05794	1226.46155	-909.81702	32.54783	1374.96155	-835.67139	78.49490	1187.18262	-848.77032	114.76563	1044.10449	-827.65735	107.57017	930.92542	-852.76379	65.94685	798.27167	-824.76019	118.23055	808.52325	-822.75623	93.01182	726.79779	-1223.39465	21.33958	1387.61304	-1335.69836	58.71641	1189.77783	-1351.39319	37.58321	1065.38489	-1386.15686	-28.15800	963.71667	-1369.08386	-143.32831	882.68512	-1408.88306	-103.28050	869.29230	-1410.91382	-166.25215	812.69696	-990.67981	-42.72826	925.94916	-1207.45313	-34.32983	917.99066	-1032.86755	146.48259	934.11737	-1177.16736	149.48146	936.41895	-923.12280	-77.76611	609.64581	-940.67548	-103.55247	479.37885	-921.32843	-89.36446	290.34171	-969.12018	-98.38341	70.59760	-1022.68988	-57.16021	39.77069	-962.49908	-245.21022	38.60453	-1265.18860	70.72707	591.62445	-1250.34607	98.95037	431.59665	-1255.80469	234.56221	315.38470	-1217.13599	363.03204	150.83914	-1165.38574	421.08313	147.10695	-1212.47473	275.97043	36.20828	-1070.00562	-70.46809	1693.44531	-3101.95508	1973.03223	1023.66663	-3140.71313	2012.55139	1022.02301			 
94	0.930	-984.04456	-46.35232	1651.97583	-1088.04626	-95.85827	1660.70483	-1031.87451	65.38432	1618.50232	-1142.82349	15.97117	1628.12170	-1072.74438	101.02567	1419.06445	-1093.38892	129.72993	1125.11353	-1067.50085	-44.56290	1354.71692	-1068.73438	-91.72550	1202.22107	-1160.15784	148.16586	1226.88733	-907.66162	22.86402	1375.36401	-833.43231	66.57484	1187.07092	-846.13037	101.42674	1043.77393	-825.02374	92.97067	930.64819	-850.31091	50.20361	798.35901	-821.92755	102.34677	808.12653	-819.96387	76.25285	726.64532	-1221.22852	11.74996	1388.38928	-1332.60730	51.25814	1190.33411	-1348.70898	30.88177	1066.06775	-1383.73853	-33.66378	963.68939	-1366.84155	-148.07809	881.49371	-1406.23889	-107.68538	868.35760	-1408.79797	-170.19188	811.37634	-988.00323	-52.22215	927.18512	-1204.52600	-44.66879	918.47736	-1031.43494	136.66783	935.07660	-1175.73889	138.93095	936.54279	-922.17877	-88.48286	610.22382	-939.58075	-112.16619	478.49725	-920.17401	-94.70592	289.50217	-969.27759	-99.71030	70.45459	-1022.80011	-57.68642	39.92811	-963.07465	-246.51912	37.61541	-1264.25537	55.01368	590.59027	-1250.87451	81.52035	430.55197	-1254.62732	220.94109	318.69653	-1215.83398	353.85861	157.96941	-1162.47852	409.87381	157.22456	-1211.80090	276.18726	36.36115	-1067.33313	-79.40741	1694.13196	-3101.81592	1973.26624	1023.28448	-3140.59546	2012.48596	1022.02057			 
95	0.940	-981.54755	-55.68274	1652.44751	-1085.49451	-104.91242	1661.46472	-1029.49597	55.98654	1618.96973	-1140.36182	6.82061	1628.87732	-1070.56873	91.30241	1419.59570	-1091.28210	120.00266	1125.72925	-1065.42737	-54.29581	1355.40796	-1066.68005	-101.51933	1202.89392	-1158.13647	138.33531	1227.44116	-905.62561	13.14173	1375.82312	-831.30225	54.83651	1187.19800	-843.42133	87.86092	1043.47546	-822.25336	78.03371	930.55823	-847.70251	34.00029	798.74347	-818.99207	86.07574	807.91290	-817.14728	58.98226	726.73846	-1219.04346	2.16696	1389.18677	-1330.12012	43.58435	1191.20056	-1345.99231	24.22733	1066.87329	-1380.96069	-39.08656	963.77631	-1364.51294	-152.43651	880.22394	-1403.80090	-111.79662	867.38806	-1406.69336	-173.66942	810.02747	-985.06390	-61.56527	928.37610	-1201.54419	-54.72398	918.99158	-1029.91223	127.02613	935.92950	-1174.35828	128.70200	936.68896	-920.88641	-98.94041	610.35547	-938.42206	-119.80826	477.90182	-919.74487	-99.41413	289.10098	-969.54425	-100.51918	70.47481	-1022.60333	-57.81154	40.20405	-963.00818	-247.23814	36.93953	-1263.41431	38.88747	589.54486	-1251.39099	63.52884	429.58105	-1253.47766	206.49989	322.24405	-1214.66455	343.25851	164.77344	-1159.72656	397.16415	167.08098	-1210.47266	275.14432	36.98128	-1064.68909	-88.47755	1694.86816	-3101.82910	1973.28540	1023.35974	-3140.71021	2012.53845	1022.09222			 
96	0.950	-979.05487	-64.93933	1653.00024	-1083.09485	-114.09452	1662.26489	-1026.92517	46.72291	1619.24353	-1138.00696	-2.36705	1629.56458	-1068.54968	81.55569	1420.25818	-1089.09241	110.39400	1126.36108	-1063.41516	-63.95816	1356.04248	-1064.74268	-111.15765	1203.43860	-1156.35645	128.57442	1228.10901	-903.67004	3.42876	1376.36133	-829.19073	43.08937	1187.44360	-840.76215	74.29689	1043.28577	-819.54089	62.87453	930.55646	-845.09747	17.31331	799.24597	-815.88263	69.26817	807.87927	-814.19202	41.15571	727.02106	-1217.17664	-7.38770	1390.05127	-1327.70007	35.73675	1192.11133	-1343.28003	17.60862	1067.72839	-1378.37012	-44.31310	963.79425	-1362.17761	-156.58604	878.74152	-1401.21887	-115.64240	866.31799	-1404.18982	-176.83583	808.11914	-981.91956	-70.80819	929.61176	-1198.45947	-64.53745	919.55261	-1028.26892	117.59673	936.59344	-1172.78540	118.78152	936.70190	-919.25299	-108.02323	610.29846	-937.08563	-126.42072	477.47824	-919.56299	-103.81407	288.95905	-969.57379	-100.99191	70.59085	-1022.55536	-57.88603	40.26099	-963.08026	-247.92171	36.26699	-1262.79248	22.69504	588.57599	-1251.32324	45.24138	428.99612	-1252.10461	191.09244	325.69278	-1213.71948	331.59335	171.27618	-1157.69812	383.90015	176.57999	-1209.22034	272.63477	38.62399	-1062.15454	-97.65679	1695.63428	-3101.84546	1973.11462	1023.31067	-3140.66553	2012.51929	1021.99567			 
